<svg width="70" height="70" viewBox="0 0 70 70" fill="none" xmlns="http://www.w3.org/2000/svg">
<mask id="mask0_1_329" style="mask-type:alpha" maskUnits="userSpaceOnUse" x="0" y="0" width="70" height="70">
<rect width="70" height="70" fill="#D9D9D9"/>
</mask>
<g mask="url(#mask0_1_329)">
<path opacity="0.8" d="M22.8958 48.125H37.9896C38.3299 48.125 38.6094 48.0156 38.8281 47.7968C39.0469 47.5781 39.1562 47.3229 39.1562 47.0312C39.1562 46.6909 39.0469 46.4114 38.8281 46.1927C38.6094 45.9739 38.3299 45.8645 37.9896 45.8645H22.8958C22.5556 45.8645 22.2882 45.9739 22.0937 46.1927C21.8993 46.4114 21.8021 46.6909 21.8021 47.0312C21.8021 47.3715 21.8993 47.6388 22.0937 47.8333C22.2882 48.0277 22.5556 48.125 22.8958 48.125ZM22.8958 36.0937H47.1042C47.4444 36.0937 47.7118 35.9843 47.9062 35.7656C48.1007 35.5468 48.1979 35.2916 48.1979 35C48.1979 34.6597 48.1007 34.3923 47.9062 34.1979C47.7118 34.0034 47.4444 33.9062 47.1042 33.9062H22.8958C22.5556 33.9062 22.2882 34.0156 22.0937 34.2343C21.8993 34.4531 21.8021 34.7083 21.8021 35C21.8021 35.3402 21.8993 35.6076 22.0937 35.802C22.2882 35.9965 22.5556 36.0937 22.8958 36.0937ZM22.8958 24.1354H47.1042C47.4444 24.1354 47.7118 24.026 47.9062 23.8073C48.1007 23.5885 48.1979 23.309 48.1979 22.9687C48.1979 22.6284 48.1007 22.3611 47.9062 22.1666C47.7118 21.9722 47.4444 21.875 47.1042 21.875H22.8958C22.5556 21.875 22.2882 21.9843 22.0937 22.2031C21.8993 22.4218 21.8021 22.677 21.8021 22.9687C21.8021 23.309 21.8993 23.5885 22.0937 23.8073C22.2882 24.026 22.5556 24.1354 22.8958 24.1354ZM15.6771 58.3333C14.559 58.3333 13.6111 57.9444 12.8333 57.1666C12.0556 56.3889 11.6667 55.4409 11.6667 54.3229V15.677C11.6667 14.559 12.0556 13.6111 12.8333 12.8333C13.6111 12.0555 14.559 11.6666 15.6771 11.6666H54.3229C55.441 11.6666 56.3889 12.0555 57.1667 12.8333C57.9444 13.6111 58.3333 14.559 58.3333 15.677V54.3229C58.3333 55.4409 57.9444 56.3889 57.1667 57.1666C56.3889 57.9444 55.441 58.3333 54.3229 58.3333H15.6771ZM15.6771 56.0729H54.3229C54.7604 56.0729 55.1615 55.8906 55.526 55.526C55.8906 55.1614 56.0729 54.7604 56.0729 54.3229V15.677C56.0729 15.2395 55.8906 14.8385 55.526 14.4739C55.1615 14.1093 54.7604 13.927 54.3229 13.927H15.6771C15.2396 13.927 14.8385 14.1093 14.474 14.4739C14.1094 14.8385 13.9271 15.2395 13.9271 15.677V54.3229C13.9271 54.7604 14.1094 55.1614 14.474 55.526C14.8385 55.8906 15.2396 56.0729 15.6771 56.0729Z" fill="#0395FF"/>
</g>
<g style="mix-blend-mode:multiply" opacity="0.5">
<path fill-rule="evenodd" clip-rule="evenodd" d="M56.3333 4.04531C59.3818 4.95959 62.4303 5.88536 65.4727 6.81114V6.80539C65.9091 6.9434 65.9939 7.05265 65.9939 7.48391V13.0098C65.9939 13.5448 65.9741 14.0761 65.9376 14.6066L66 14.6371C65.9745 14.7648 65.8993 15.2184 65.8113 15.7485C65.6696 16.6034 65.4948 17.6571 65.4424 17.863C64.9031 19.956 63.9394 21.8363 62.3697 23.4061C60.8909 24.8839 59.1031 25.8902 57.1334 26.632C56.883 26.7306 56.629 26.8257 56.377 26.92C56.3057 26.9467 56.2345 26.9734 56.1637 27H55.8364C55.8122 26.9896 55.7881 26.9777 55.7637 26.9656C55.7206 26.9444 55.6767 26.9227 55.6303 26.908C54.5516 26.5457 53.5091 26.1145 52.5213 25.5682C49.7697 24.0559 47.8728 21.8766 46.8788 18.9785C46.6809 18.3911 46.2918 16.2438 46.0922 15.142C46.0533 14.9278 46.0217 14.7531 46 14.6371L46.0507 14.6057C46.0189 14.1271 46 13.645 46 13.1593V7.42641C46 7.0699 46.103 6.9319 46.4667 6.82264C47.4372 6.52965 48.4077 6.23551 49.3785 5.94131C51.475 5.30591 53.5724 4.67024 55.6727 4.04531C55.8788 3.98206 56.1333 3.98781 56.3333 4.04531Z" fill="#15BE53"/>
</g>
</svg>
