<svg width="56" height="56" viewBox="0 0 56 56" fill="none" xmlns="http://www.w3.org/2000/svg">
<rect width="56" height="56" fill="#1E1E1E"/>
<g id="modals-1" clip-path="url(#clip0_25_66)">
<rect width="1293" height="915" transform="translate(-848 -114)" fill="white"/>
<g id="Group 32">
<rect id="Rectangle 4" x="-848" y="-114" width="1293" height="915" fill="#F6F9FC"/>
</g>
<rect id="Rectangle 1327" opacity="0.7" x="-849" y="-114" width="1294" height="915" fill="black"/>
<g id="Group 48095733">
<g id="Rectangle 1328" filter="url(#filter0_d_25_66)">
<rect x="-182" y="-40" width="421" height="366" rx="10" fill="white"/>
</g>
<circle id="Ellipse 2338" opacity="0.1" cx="28" cy="28" r="28" fill="#FF006B"/>
<circle id="Ellipse 2339" opacity="0.1" cx="28" cy="28" r="20" fill="#FF006B"/>
<g id="do_not_disturb_on">
<mask id="mask0_25_66" style="mask-type:alpha" maskUnits="userSpaceOnUse" x="16" y="16" width="24" height="24">
<rect id="Bounding box" x="16" y="16" width="24" height="24" fill="#D9D9D9"/>
</mask>
<g mask="url(#mask0_25_66)">
<path id="do_not_disturb_on_2" d="M23 29H33V27H23V29ZM28 38C26.6167 38 25.3167 37.7373 24.1 37.212C22.8833 36.6873 21.825 35.975 20.925 35.075C20.025 34.175 19.3127 33.1167 18.788 31.9C18.2627 30.6833 18 29.3833 18 28C18 26.6167 18.2627 25.3167 18.788 24.1C19.3127 22.8833 20.025 21.825 20.925 20.925C21.825 20.025 22.8833 19.3123 24.1 18.787C25.3167 18.2623 26.6167 18 28 18C29.3833 18 30.6833 18.2623 31.9 18.787C33.1167 19.3123 34.175 20.025 35.075 20.925C35.975 21.825 36.6873 22.8833 37.212 24.1C37.7373 25.3167 38 26.6167 38 28C38 29.3833 37.7373 30.6833 37.212 31.9C36.6873 33.1167 35.975 34.175 35.075 35.075C34.175 35.975 33.1167 36.6873 31.9 37.212C30.6833 37.7373 29.3833 38 28 38ZM28 36C30.2333 36 32.125 35.225 33.675 33.675C35.225 32.125 36 30.2333 36 28C36 25.7667 35.225 23.875 33.675 22.325C32.125 20.775 30.2333 20 28 20C25.7667 20 23.875 20.775 22.325 22.325C20.775 23.875 20 25.7667 20 28C20 30.2333 20.775 32.125 22.325 33.675C23.875 35.225 25.7667 36 28 36Z" fill="#FF006B"/>
</g>
</g>
</g>
</g>
<defs>
<filter id="filter0_d_25_66" x="-242" y="-70" width="541" height="486" filterUnits="userSpaceOnUse" color-interpolation-filters="sRGB">
<feFlood flood-opacity="0" result="BackgroundImageFix"/>
<feColorMatrix in="SourceAlpha" type="matrix" values="0 0 0 0 0 0 0 0 0 0 0 0 0 0 0 0 0 0 127 0" result="hardAlpha"/>
<feMorphology radius="10" operator="erode" in="SourceAlpha" result="effect1_dropShadow_25_66"/>
<feOffset dy="30"/>
<feGaussianBlur stdDeviation="35"/>
<feComposite in2="hardAlpha" operator="out"/>
<feColorMatrix type="matrix" values="0 0 0 0 0 0 0 0 0 0 0 0 0 0 0 0 0 0 0.5 0"/>
<feBlend mode="normal" in2="BackgroundImageFix" result="effect1_dropShadow_25_66"/>
<feBlend mode="normal" in="SourceGraphic" in2="effect1_dropShadow_25_66" result="shape"/>
</filter>
<clipPath id="clip0_25_66">
<rect width="1293" height="915" fill="white" transform="translate(-848 -114)"/>
</clipPath>
</defs>
</svg>
