<svg width="70" height="70" viewBox="0 0 70 70" fill="none" xmlns="http://www.w3.org/2000/svg">
<mask id="mask0_1_332" style="mask-type:alpha" maskUnits="userSpaceOnUse" x="0" y="0" width="70" height="70">
<rect width="70" height="70" fill="#D9D9D9"/>
</mask>
<g mask="url(#mask0_1_332)">
<path opacity="0.8" d="M35.0729 62.3438V60.1563H54.3229C54.809 60.1563 55.2222 59.9861 55.5625 59.6458C55.9028 59.3056 56.0729 58.8681 56.0729 58.3333V55.6354H47.5417V38.5H56.0729V32.1562C56.0729 26.3229 54.0312 21.3403 49.9479 17.2083C45.8646 13.0764 40.9062 11.0104 35.0729 11.0104C29.2396 11.0104 24.2569 13.0764 20.125 17.2083C15.993 21.3403 13.9271 26.3229 13.9271 32.1562V38.5H22.4583V55.6354H15.6771C14.559 55.6354 13.6111 55.2465 12.8333 54.4687C12.0555 53.691 11.6667 52.7431 11.6667 51.625V32.1562C11.6667 28.9479 12.2743 25.9219 13.4896 23.0781C14.7049 20.2344 16.3698 17.7431 18.4844 15.6042C20.5989 13.4653 23.0903 11.7882 25.9583 10.5729C28.8264 9.35764 31.8646 8.75 35.0729 8.75C38.3299 8.75 41.368 9.35764 44.1875 10.5729C47.0069 11.7882 49.4618 13.4531 51.5521 15.5677C53.6423 17.6823 55.2951 20.1736 56.5104 23.0417C57.7257 25.9097 58.3333 28.9479 58.3333 32.1562V58.3333C58.3333 59.4514 57.9444 60.3993 57.1667 61.1771C56.3889 61.9549 55.441 62.3438 54.3229 62.3438H35.0729ZM15.6771 53.375H20.1979V40.6875H13.9271V51.625C13.9271 52.1111 14.0972 52.5243 14.4375 52.8646C14.7778 53.2049 15.191 53.375 15.6771 53.375ZM49.8021 53.375H56.0729V40.6875H49.8021V53.375ZM20.1979 53.375H15.6771C15.191 53.375 14.7778 53.375 14.4375 53.375C14.0972 53.375 13.9271 53.375 13.9271 53.375H20.1979Z" fill="#0395FF"/>
</g>
<g style="mix-blend-mode:multiply" opacity="0.5">
<path fill-rule="evenodd" clip-rule="evenodd" d="M51.3333 6.04531C54.3818 6.95959 57.4303 7.88536 60.4727 8.81114V8.80539C60.9091 8.9434 60.9939 9.05265 60.9939 9.48391V15.0098C60.9939 15.5448 60.9741 16.0761 60.9376 16.6066L61 16.6371C60.9745 16.7648 60.8993 17.2184 60.8113 17.7485C60.6696 18.6034 60.4948 19.6571 60.4424 19.863C59.9031 21.956 58.9394 23.8363 57.3697 25.4061C55.8909 26.8839 54.1031 27.8902 52.1334 28.632C51.883 28.7306 51.629 28.8257 51.377 28.92C51.3057 28.9467 51.2345 28.9734 51.1637 29H50.8364C50.8122 28.9896 50.7881 28.9777 50.7637 28.9656C50.7206 28.9444 50.6767 28.9227 50.6303 28.908C49.5516 28.5457 48.5091 28.1145 47.5213 27.5682C44.7697 26.0559 42.8728 23.8766 41.8788 20.9785C41.6809 20.3911 41.2918 18.2438 41.0922 17.142C41.0533 16.9278 41.0217 16.7531 41 16.6371L41.0507 16.6057C41.0189 16.1271 41 15.645 41 15.1593V9.42641C41 9.0699 41.103 8.9319 41.4667 8.82264C42.4372 8.52965 43.4077 8.23551 44.3785 7.94131C46.475 7.30591 48.5724 6.67024 50.6727 6.04531C50.8788 5.98206 51.1333 5.98781 51.3333 6.04531Z" fill="#15BE53"/>
</g>
</svg>
