<svg width="18" height="18" viewBox="0 0 18 18" fill="none" xmlns="http://www.w3.org/2000/svg">
<path d="M9.025 14.575C9.30833 14.575 9.55 14.475 9.75 14.275C9.95 14.075 10.05 13.8333 10.05 13.55C10.05 13.2667 9.95 13.025 9.75 12.825C9.55 12.625 9.30833 12.525 9.025 12.525C8.74167 12.525 8.5 12.625 8.3 12.825C8.1 13.025 8 13.2667 8 13.55C8 13.8333 8.1 14.075 8.3 14.275C8.5 14.475 8.74167 14.575 9.025 14.575ZM8.3 10.975H9.725C9.74167 10.4583 9.81667 10.0623 9.95 9.787C10.0833 9.51233 10.3583 9.16667 10.775 8.75C11.3083 8.21667 11.6877 7.76667 11.913 7.4C12.1377 7.03333 12.25 6.60833 12.25 6.125C12.25 5.29167 11.9667 4.62067 11.4 4.112C10.8333 3.604 10.1 3.35 9.2 3.35C8.38333 3.35 7.68767 3.55833 7.113 3.975C6.53767 4.39167 6.13333 4.93333 5.9 5.6L7.175 6.125C7.30833 5.69167 7.54167 5.34167 7.875 5.075C8.20833 4.80833 8.625 4.675 9.125 4.675C9.65833 4.675 10.0793 4.821 10.388 5.113C10.696 5.40433 10.85 5.75833 10.85 6.175C10.85 6.49167 10.7583 6.79567 10.575 7.087C10.3917 7.379 10.1083 7.7 9.725 8.05C9.175 8.53333 8.8 8.98733 8.6 9.412C8.4 9.83733 8.3 10.3583 8.3 10.975ZM2.3 17.5C1.8 17.5 1.375 17.325 1.025 16.975C0.675 16.625 0.5 16.2 0.5 15.7V2.3C0.5 1.8 0.675 1.375 1.025 1.025C1.375 0.675 1.8 0.5 2.3 0.5H15.7C16.2 0.5 16.625 0.675 16.975 1.025C17.325 1.375 17.5 1.8 17.5 2.3V15.7C17.5 16.2 17.325 16.625 16.975 16.975C16.625 17.325 16.2 17.5 15.7 17.5H2.3ZM2.3 16H15.7C15.7667 16 15.8333 15.9667 15.9 15.9C15.9667 15.8333 16 15.7667 16 15.7V2.3C16 2.23333 15.9667 2.16667 15.9 2.1C15.8333 2.03333 15.7667 2 15.7 2H2.3C2.23333 2 2.16667 2.03333 2.1 2.1C2.03333 2.16667 2 2.23333 2 2.3V15.7C2 15.7667 2.03333 15.8333 2.1 15.9C2.16667 15.9667 2.23333 16 2.3 16Z" fill="#9CB8A6"/>
</svg>
