<svg width="70" height="70" viewBox="0 0 70 70" fill="none" xmlns="http://www.w3.org/2000/svg">
<g opacity="0.8">
<mask id="mask0_1_328" style="mask-type:alpha" maskUnits="userSpaceOnUse" x="0" y="0" width="70" height="70">
<rect width="70" height="70" fill="#D9D9D9"/>
</mask>
<g mask="url(#mask0_1_328)">
<path d="M31.0625 55.4167H19.5417C18.9583 55.4167 18.4722 55.2223 18.0833 54.8334C17.6945 54.4445 17.5 53.9584 17.5 53.3751V32.6667H15.6042C15.1181 32.6667 14.7899 32.4358 14.6198 31.974C14.4497 31.5122 14.5347 31.1112 14.875 30.7709L33.6875 13.8542C34.0278 13.5626 34.4531 13.4046 34.9635 13.3803C35.474 13.356 35.8507 13.4653 36.0938 13.7084L47.3229 23.698V17.7188C47.3229 17.4271 47.4323 17.1719 47.651 16.9532C47.8698 16.7344 48.1493 16.6251 48.4896 16.6251H49.5833C49.9236 16.6251 50.191 16.7344 50.3854 16.9532C50.5799 17.1719 50.6771 17.4271 50.6771 17.7188V26.7605L55.125 30.7709C55.4653 31.1112 55.5503 31.5122 55.3802 31.974C55.2101 32.4358 54.8819 32.6667 54.3958 32.6667H52.5V53.3751C52.5 53.9584 52.3056 54.4445 51.9167 54.8334C51.5278 55.2223 51.0417 55.4167 50.4583 55.4167H38.9375V40.1771H31.0625V55.4167ZM19.7604 53.1563H28.8021V39.9584C28.8021 39.3751 28.9965 38.8889 29.3854 38.5001C29.7743 38.1112 30.2604 37.9167 30.8438 37.9167H39.1563C39.7396 37.9167 40.2257 38.1112 40.6146 38.5001C41.0035 38.8889 41.1979 39.3751 41.1979 39.9584V53.1563H50.2396V29.4584L35 15.6042L19.7604 29.4584V53.1563ZM29.6042 28.8021H40.4688C40.4688 27.3924 39.9097 26.2379 38.7917 25.3386C37.6736 24.4393 36.4097 23.9896 35 23.9896C33.5903 23.9896 32.3385 24.4393 31.2448 25.3386C30.151 26.2379 29.6042 27.3924 29.6042 28.8021Z" fill="#0395FF"/>
</g>
</g>
<g style="mix-blend-mode:multiply" opacity="0.5">
<path fill-rule="evenodd" clip-rule="evenodd" d="M53.3333 12.0453C56.3818 12.9596 59.4303 13.8854 62.4727 14.8111V14.8054C62.9091 14.9434 62.9939 15.0526 62.9939 15.4839V21.0098C62.9939 21.5448 62.9741 22.0761 62.9376 22.6066L63 22.6371C62.9745 22.7648 62.8993 23.2184 62.8113 23.7485C62.6696 24.6034 62.4948 25.6571 62.4424 25.863C61.9031 27.956 60.9394 29.8363 59.3697 31.4061C57.8909 32.8839 56.1031 33.8902 54.1334 34.632C53.883 34.7306 53.629 34.8257 53.377 34.92C53.3057 34.9467 53.2345 34.9734 53.1637 35H52.8364C52.8122 34.9896 52.7881 34.9777 52.7637 34.9656C52.7206 34.9444 52.6767 34.9227 52.6303 34.908C51.5516 34.5457 50.5091 34.1145 49.5213 33.5682C46.7697 32.0559 44.8728 29.8766 43.8788 26.9785C43.6809 26.3911 43.2918 24.2438 43.0922 23.142C43.0533 22.9278 43.0217 22.7531 43 22.6371L43.0507 22.6057C43.0189 22.1271 43 21.645 43 21.1593V15.4264C43 15.0699 43.103 14.9319 43.4667 14.8226C44.4372 14.5297 45.4077 14.2355 46.3785 13.9413C48.475 13.3059 50.5724 12.6702 52.6727 12.0453C52.8788 11.9821 53.1333 11.9878 53.3333 12.0453Z" fill="#15BE53"/>
</g>
</svg>
