<svg width="70" height="70" viewBox="0 0 70 70" fill="none" xmlns="http://www.w3.org/2000/svg">
<mask id="mask0_1_330" style="mask-type:alpha" maskUnits="userSpaceOnUse" x="0" y="0" width="70" height="70">
<rect width="70" height="70" fill="#D9D9D9"/>
</mask>
<g mask="url(#mask0_1_330)">
<path opacity="0.8" d="M16.0417 52.5C14.9722 52.5 14.0365 52.099 13.2344 51.2969C12.4323 50.4948 12.0312 49.559 12.0312 48.4896V21.5104C12.0312 20.441 12.4323 19.5052 13.2344 18.7031C14.0365 17.901 14.9722 17.5 16.0417 17.5H42.2917C43.4097 17.5 44.4306 17.7552 45.3542 18.2656C46.2778 18.776 47.0799 19.4931 47.7604 20.4167L56.3646 32.5938C56.8507 33.2743 57.0938 34.0521 57.0938 34.9271C57.0938 35.8021 56.8507 36.6285 56.3646 37.4062L47.7604 49.4375C47.0313 50.3611 46.217 51.1024 45.3177 51.6615C44.4184 52.2205 43.4097 52.5 42.2917 52.5H16.0417ZM55.1979 35L45.4271 21.2188C45.1354 20.7813 44.7344 20.4288 44.224 20.1615C43.7135 19.8941 43.191 19.7604 42.6563 19.7604H16.0417C15.6042 19.7604 15.191 19.9427 14.8021 20.3073C14.4132 20.6719 14.2188 21.0729 14.2188 21.5104V48.4896C14.2188 48.9271 14.4132 49.3281 14.8021 49.6927C15.191 50.0573 15.6042 50.2396 16.0417 50.2396H42.6563C43.191 50.2396 43.7135 50.1059 44.224 49.8385C44.7344 49.5712 45.1354 49.2188 45.4271 48.7813L55.1979 35ZM14.2188 48.7813C14.2188 49.2188 14.2188 49.5712 14.2188 49.8385C14.2188 50.1059 14.2188 50.2396 14.2188 50.2396C14.2188 50.2396 14.2188 50.0573 14.2188 49.6927C14.2188 49.3281 14.2188 48.9271 14.2188 48.4896V21.5104C14.2188 21.0729 14.2188 20.6719 14.2188 20.3073C14.2188 19.9427 14.2188 19.7604 14.2188 19.7604C14.2188 19.7604 14.2188 19.8941 14.2188 20.1615C14.2188 20.4288 14.2188 20.7813 14.2188 21.2188V48.7813Z" fill="#0395FF"/>
</g>
<g style="mix-blend-mode:multiply" opacity="0.5">
<path fill-rule="evenodd" clip-rule="evenodd" d="M51.3333 9.04531C54.3818 9.95959 57.4303 10.8854 60.4727 11.8111V11.8054C60.9091 11.9434 60.9939 12.0526 60.9939 12.4839V18.0098C60.9939 18.5448 60.9741 19.0761 60.9376 19.6066L61 19.6371C60.9745 19.7648 60.8993 20.2184 60.8113 20.7485C60.6696 21.6034 60.4948 22.6571 60.4424 22.863C59.9031 24.956 58.9394 26.8363 57.3697 28.4061C55.8909 29.8839 54.1031 30.8902 52.1334 31.632C51.883 31.7306 51.629 31.8257 51.377 31.92C51.3057 31.9467 51.2345 31.9734 51.1637 32H50.8364C50.8122 31.9896 50.7881 31.9777 50.7637 31.9656C50.7206 31.9444 50.6767 31.9227 50.6303 31.908C49.5516 31.5457 48.5091 31.1145 47.5213 30.5682C44.7697 29.0559 42.8728 26.8766 41.8788 23.9785C41.6809 23.3911 41.2918 21.2438 41.0922 20.142C41.0533 19.9278 41.0217 19.7531 41 19.6371L41.0507 19.6057C41.0189 19.1271 41 18.645 41 18.1593V12.4264C41 12.0699 41.103 11.9319 41.4667 11.8226C42.4372 11.5297 43.4077 11.2355 44.3785 10.9413C46.475 10.3059 48.5724 9.67024 50.6727 9.04531C50.8788 8.98206 51.1333 8.98781 51.3333 9.04531Z" fill="#15BE53"/>
</g>
</svg>
