<svg width="70" height="70" viewBox="0 0 70 70" fill="none" xmlns="http://www.w3.org/2000/svg">
<mask id="mask0_1_331" style="mask-type:alpha" maskUnits="userSpaceOnUse" x="0" y="0" width="70" height="70">
<rect width="70" height="70" fill="#D9D9D9"/>
</mask>
<g mask="url(#mask0_1_331)">
<path opacity="0.8" d="M35 50.0208C40.3958 45.743 44.4792 41.6475 47.25 37.7343C50.0208 33.8211 51.4063 30.0173 51.4063 26.3229C51.4063 23.2604 50.8472 20.6597 49.7292 18.5208C48.6111 16.3819 47.2257 14.6562 45.5729 13.3437C43.9201 12.0312 42.1458 11.0711 40.25 10.4635C38.3542 9.85586 36.6042 9.55204 35 9.55204C33.4444 9.55204 31.7066 9.85586 29.7865 10.4635C27.8663 11.0711 26.0799 12.0312 24.4271 13.3437C22.7743 14.6562 21.3889 16.3819 20.2708 18.5208C19.1528 20.6597 18.5938 23.2604 18.5938 26.3229C18.5938 30.0173 19.9792 33.8211 22.75 37.7343C25.5208 41.6475 29.6042 45.743 35 50.0208ZM35 52.8645C28.7292 48.1007 24.0625 43.5312 21 39.1562C17.9375 34.7812 16.4062 30.5034 16.4062 26.3229C16.4062 23.2118 16.9653 20.4774 18.0833 18.1198C19.2014 15.7621 20.6476 13.7691 22.4219 12.1406C24.1962 10.5121 26.2014 9.29683 28.4375 8.49475C30.6736 7.69267 32.8611 7.29163 35 7.29163C37.1389 7.29163 39.3264 7.69267 41.5625 8.49475C43.7986 9.29683 45.8038 10.5121 47.5781 12.1406C49.3524 13.7691 50.7986 15.7621 51.9167 18.1198C53.0347 20.4774 53.5938 23.2361 53.5938 26.3958C53.5938 30.5277 52.0625 34.7812 49 39.1562C45.9375 43.5312 41.2708 48.1007 35 52.8645ZM35 29.9687C36.1667 29.9687 37.1267 29.5677 37.8802 28.7656C38.6337 27.9635 39.0104 27.0034 39.0104 25.8854C39.0104 24.7673 38.6215 23.8194 37.8438 23.0416C37.066 22.2638 36.1181 21.875 35 21.875C33.8819 21.875 32.934 22.2638 32.1562 23.0416C31.3785 23.8194 30.9896 24.7673 30.9896 25.8854C30.9896 27.0034 31.3785 27.9635 32.1562 28.7656C32.934 29.5677 33.8819 29.9687 35 29.9687ZM16.4062 62.7083V60.4479H53.5938V62.7083H16.4062Z" fill="#0395FF"/>
</g>
<g style="mix-blend-mode:multiply" opacity="0.5">
<path fill-rule="evenodd" clip-rule="evenodd" d="M51.3333 6.04531C54.3818 6.95959 57.4303 7.88536 60.4727 8.81114V8.80539C60.9091 8.9434 60.9939 9.05265 60.9939 9.48391V15.0098C60.9939 15.5448 60.9741 16.0761 60.9376 16.6066L61 16.6371C60.9745 16.7648 60.8993 17.2184 60.8113 17.7485C60.6696 18.6034 60.4948 19.6571 60.4424 19.863C59.9031 21.956 58.9394 23.8363 57.3697 25.4061C55.8909 26.8839 54.1031 27.8902 52.1334 28.632C51.883 28.7306 51.629 28.8257 51.377 28.92C51.3057 28.9467 51.2345 28.9734 51.1637 29H50.8364C50.8122 28.9896 50.7881 28.9777 50.7637 28.9656C50.7206 28.9444 50.6767 28.9227 50.6303 28.908C49.5516 28.5457 48.5091 28.1145 47.5213 27.5682C44.7697 26.0559 42.8728 23.8766 41.8788 20.9785C41.6809 20.3911 41.2918 18.2438 41.0922 17.142C41.0533 16.9278 41.0217 16.7531 41 16.6371L41.0507 16.6057C41.0189 16.1271 41 15.645 41 15.1593V9.42641C41 9.0699 41.103 8.9319 41.4667 8.82264C42.4372 8.52965 43.4077 8.23551 44.3785 7.94131C46.475 7.30591 48.5724 6.67024 50.6727 6.04531C50.8788 5.98206 51.1333 5.98781 51.3333 6.04531Z" fill="#15BE53"/>
</g>
</svg>
