<svg width="56" height="56" viewBox="0 0 56 56" fill="none" xmlns="http://www.w3.org/2000/svg">
<rect width="56" height="56" fill="#1E1E1E"/>
<g id="modals-1" clip-path="url(#clip0_25_66)">
<rect width="1293" height="915" transform="translate(-387 -114)" fill="white"/>
<g id="Group 32">
<rect id="Rectangle 4" x="-387" y="-114" width="1293" height="915" fill="#F6F9FC"/>
<path id="Latest Properties" d="M-132.36 21V7.04H-129.72V18.66H-124.22V21H-132.36ZM-114.352 21C-114.912 21 -115.358 20.84 -115.692 20.52C-116.012 20.1867 -116.212 19.7467 -116.292 19.2H-116.412C-116.585 19.88 -116.938 20.3933 -117.472 20.74C-118.005 21.0733 -118.665 21.24 -119.452 21.24C-120.518 21.24 -121.338 20.96 -121.912 20.4C-122.485 19.84 -122.772 19.0933 -122.772 18.16C-122.772 17.08 -122.385 16.28 -121.612 15.76C-120.838 15.2267 -119.738 14.96 -118.312 14.96H-116.532V14.2C-116.532 13.6133 -116.685 13.16 -116.992 12.84C-117.298 12.52 -117.792 12.36 -118.472 12.36C-119.072 12.36 -119.558 12.4933 -119.932 12.76C-120.292 13.0133 -120.598 13.32 -120.852 13.68L-122.372 12.32C-121.985 11.72 -121.472 11.24 -120.832 10.88C-120.192 10.5067 -119.345 10.32 -118.292 10.32C-116.878 10.32 -115.805 10.64 -115.072 11.28C-114.338 11.92 -113.972 12.84 -113.972 14.04V18.96H-112.932V21H-114.352ZM-118.592 19.38C-118.018 19.38 -117.532 19.2533 -117.132 19C-116.732 18.7467 -116.532 18.3733 -116.532 17.88V16.5H-118.172C-119.505 16.5 -120.172 16.9267 -120.172 17.78V18.12C-120.172 18.5467 -120.038 18.8667 -119.772 19.08C-119.492 19.28 -119.098 19.38 -118.592 19.38ZM-107.678 21C-108.558 21 -109.231 20.7733 -109.698 20.32C-110.151 19.8533 -110.378 19.1933 -110.378 18.34V12.6H-111.918V10.56H-111.118C-110.731 10.56 -110.471 10.4733 -110.338 10.3C-110.191 10.1133 -110.118 9.84 -110.118 9.48V7.7H-107.818V10.56H-105.678V12.6H-107.818V18.96H-105.838V21H-107.678ZM-99.3156 21.24C-100.089 21.24 -100.782 21.1133 -101.396 20.86C-101.996 20.5933 -102.509 20.2267 -102.936 19.76C-103.349 19.28 -103.669 18.7067 -103.896 18.04C-104.122 17.36 -104.236 16.6 -104.236 15.76C-104.236 14.9333 -104.129 14.1867 -103.916 13.52C-103.689 12.8533 -103.369 12.2867 -102.956 11.82C-102.542 11.34 -102.036 10.9733 -101.436 10.72C-100.836 10.4533 -100.156 10.32 -99.3956 10.32C-98.5823 10.32 -97.8756 10.46 -97.2756 10.74C-96.6756 11.02 -96.1823 11.4 -95.7956 11.88C-95.409 12.36 -95.1223 12.92 -94.9356 13.56C-94.7356 14.1867 -94.6356 14.86 -94.6356 15.58V16.42H-101.576V16.68C-101.576 17.44 -101.362 18.0533 -100.936 18.52C-100.509 18.9733 -99.8756 19.2 -99.0356 19.2C-98.3956 19.2 -97.8756 19.0667 -97.4756 18.8C-97.0623 18.5333 -96.6956 18.1933 -96.3756 17.78L-94.9956 19.32C-95.4223 19.92 -96.009 20.3933 -96.7556 20.74C-97.489 21.0733 -98.3423 21.24 -99.3156 21.24ZM-99.3556 12.24C-100.036 12.24 -100.576 12.4667 -100.976 12.92C-101.376 13.3733 -101.576 13.96 -101.576 14.68V14.84H-97.2956V14.66C-97.2956 13.94 -97.4756 13.36 -97.8356 12.92C-98.1823 12.4667 -98.689 12.24 -99.3556 12.24ZM-88.9633 21.24C-89.9633 21.24 -90.8033 21.0733 -91.4833 20.74C-92.1633 20.3933 -92.7633 19.92 -93.2833 19.32L-91.7233 17.8C-91.3366 18.24 -90.9166 18.5867 -90.4633 18.84C-89.9966 19.0933 -89.4633 19.22 -88.8633 19.22C-88.2499 19.22 -87.8099 19.1133 -87.5433 18.9C-87.2633 18.6867 -87.1233 18.3933 -87.1233 18.02C-87.1233 17.7133 -87.2233 17.4733 -87.4233 17.3C-87.6099 17.1133 -87.9366 16.9867 -88.4033 16.92L-89.4433 16.78C-90.5766 16.6333 -91.4433 16.3133 -92.0433 15.82C-92.6299 15.3133 -92.9233 14.58 -92.9233 13.62C-92.9233 13.1133 -92.8299 12.66 -92.6433 12.26C-92.4566 11.8467 -92.1899 11.5 -91.8433 11.22C-91.4966 10.9267 -91.0833 10.7067 -90.6033 10.56C-90.1099 10.4 -89.5633 10.32 -88.9633 10.32C-88.4566 10.32 -88.0099 10.36 -87.6233 10.44C-87.2233 10.5067 -86.8633 10.6133 -86.5433 10.76C-86.2233 10.8933 -85.9299 11.0667 -85.6633 11.28C-85.3966 11.48 -85.1366 11.7067 -84.8833 11.96L-86.3833 13.46C-86.6899 13.14 -87.0566 12.8733 -87.4833 12.66C-87.9099 12.4467 -88.3766 12.34 -88.8833 12.34C-89.4433 12.34 -89.8499 12.44 -90.1033 12.64C-90.3433 12.84 -90.4633 13.1 -90.4633 13.42C-90.4633 13.7667 -90.3633 14.0333 -90.1633 14.22C-89.9499 14.3933 -89.5966 14.52 -89.1033 14.6L-88.0433 14.74C-85.7899 15.06 -84.6633 16.0867 -84.6633 17.82C-84.6633 18.3267 -84.7699 18.7933 -84.9833 19.22C-85.1833 19.6333 -85.4699 19.9933 -85.8433 20.3C-86.2166 20.5933 -86.6699 20.8267 -87.2033 21C-87.7233 21.16 -88.3099 21.24 -88.9633 21.24ZM-79.2991 21C-80.1791 21 -80.8524 20.7733 -81.3191 20.32C-81.7724 19.8533 -81.9991 19.1933 -81.9991 18.34V12.6H-83.5391V10.56H-82.7391C-82.3524 10.56 -82.0924 10.4733 -81.9591 10.3C-81.8124 10.1133 -81.7391 9.84 -81.7391 9.48V7.7H-79.4391V10.56H-77.2991V12.6H-79.4391V18.96H-77.4591V21H-79.2991ZM-70.192 21V7.04H-63.912C-63.272 7.04 -62.6987 7.14667 -62.192 7.36C-61.672 7.56 -61.232 7.85333 -60.872 8.24C-60.512 8.61333 -60.2387 9.06667 -60.052 9.6C-59.8654 10.1333 -59.772 10.72 -59.772 11.36C-59.772 12.0133 -59.8654 12.6067 -60.052 13.14C-60.2387 13.66 -60.512 14.1133 -60.872 14.5C-61.232 14.8733 -61.672 15.1667 -62.192 15.38C-62.6987 15.58 -63.272 15.68 -63.912 15.68H-67.552V21H-70.192ZM-67.552 13.4H-64.152C-63.6454 13.4 -63.2454 13.2667 -62.952 13C-62.6587 12.72 -62.512 12.3267 -62.512 11.82V10.9C-62.512 10.3933 -62.6587 10.0067 -62.952 9.74C-63.2454 9.47333 -63.6454 9.34 -64.152 9.34H-67.552V13.4ZM-57.7348 21V10.56H-55.1748V12.72H-55.0748C-55.0082 12.44 -54.9082 12.1733 -54.7748 11.92C-54.6282 11.6533 -54.4415 11.42 -54.2148 11.22C-53.9882 11.02 -53.7215 10.86 -53.4148 10.74C-53.0948 10.62 -52.7282 10.56 -52.3148 10.56H-51.7548V12.98H-52.5548C-53.4215 12.98 -54.0748 13.1067 -54.5148 13.36C-54.9548 13.6133 -55.1748 14.0267 -55.1748 14.6V21H-57.7348ZM-45.8409 21.24C-46.5876 21.24 -47.2609 21.1133 -47.8609 20.86C-48.4476 20.6067 -48.9543 20.24 -49.3809 19.76C-49.7943 19.28 -50.1143 18.7067 -50.3409 18.04C-50.5676 17.36 -50.6809 16.6 -50.6809 15.76C-50.6809 14.92 -50.5676 14.1667 -50.3409 13.5C-50.1143 12.8333 -49.7943 12.2667 -49.3809 11.8C-48.9543 11.32 -48.4476 10.9533 -47.8609 10.7C-47.2609 10.4467 -46.5876 10.32 -45.8409 10.32C-45.0943 10.32 -44.4209 10.4467 -43.8209 10.7C-43.2209 10.9533 -42.7143 11.32 -42.3009 11.8C-41.8743 12.2667 -41.5476 12.8333 -41.3209 13.5C-41.0943 14.1667 -40.9809 14.92 -40.9809 15.76C-40.9809 16.6 -41.0943 17.36 -41.3209 18.04C-41.5476 18.7067 -41.8743 19.28 -42.3009 19.76C-42.7143 20.24 -43.2209 20.6067 -43.8209 20.86C-44.4209 21.1133 -45.0943 21.24 -45.8409 21.24ZM-45.8409 19.18C-45.1609 19.18 -44.6276 18.9733 -44.2409 18.56C-43.8543 18.1467 -43.6609 17.54 -43.6609 16.74V14.8C-43.6609 14.0133 -43.8543 13.4133 -44.2409 13C-44.6276 12.5867 -45.1609 12.38 -45.8409 12.38C-46.5076 12.38 -47.0343 12.5867 -47.4209 13C-47.8076 13.4133 -48.0009 14.0133 -48.0009 14.8V16.74C-48.0009 17.54 -47.8076 18.1467 -47.4209 18.56C-47.0343 18.9733 -46.5076 19.18 -45.8409 19.18ZM-38.7114 10.56H-36.1514V12.28H-36.0714C-35.8847 11.68 -35.5314 11.2067 -35.0114 10.86C-34.4914 10.5 -33.8847 10.32 -33.1914 10.32C-31.8581 10.32 -30.8447 10.7933 -30.1514 11.74C-29.4447 12.6733 -29.0914 14.0133 -29.0914 15.76C-29.0914 17.52 -29.4447 18.8733 -30.1514 19.82C-30.8447 20.7667 -31.8581 21.24 -33.1914 21.24C-33.8847 21.24 -34.4914 21.06 -35.0114 20.7C-35.5181 20.34 -35.8714 19.86 -36.0714 19.26H-36.1514V25H-38.7114V10.56ZM-34.0114 19.12C-33.3447 19.12 -32.8047 18.9 -32.3914 18.46C-31.9781 18.02 -31.7714 17.4267 -31.7714 16.68V14.88C-31.7714 14.1333 -31.9781 13.54 -32.3914 13.1C-32.8047 12.6467 -33.3447 12.42 -34.0114 12.42C-34.6247 12.42 -35.1381 12.5733 -35.5514 12.88C-35.9514 13.1867 -36.1514 13.5933 -36.1514 14.1V17.42C-36.1514 17.9667 -35.9514 18.3867 -35.5514 18.68C-35.1381 18.9733 -34.6247 19.12 -34.0114 19.12ZM-22.4992 21.24C-23.2726 21.24 -23.9659 21.1133 -24.5792 20.86C-25.1792 20.5933 -25.6926 20.2267 -26.1192 19.76C-26.5326 19.28 -26.8526 18.7067 -27.0792 18.04C-27.3059 17.36 -27.4192 16.6 -27.4192 15.76C-27.4192 14.9333 -27.3126 14.1867 -27.0992 13.52C-26.8726 12.8533 -26.5526 12.2867 -26.1392 11.82C-25.7259 11.34 -25.2192 10.9733 -24.6192 10.72C-24.0192 10.4533 -23.3392 10.32 -22.5792 10.32C-21.7659 10.32 -21.0592 10.46 -20.4592 10.74C-19.8592 11.02 -19.3659 11.4 -18.9792 11.88C-18.5926 12.36 -18.3059 12.92 -18.1192 13.56C-17.9192 14.1867 -17.8192 14.86 -17.8192 15.58V16.42H-24.7592V16.68C-24.7592 17.44 -24.5459 18.0533 -24.1192 18.52C-23.6926 18.9733 -23.0592 19.2 -22.2192 19.2C-21.5792 19.2 -21.0592 19.0667 -20.6592 18.8C-20.2459 18.5333 -19.8792 18.1933 -19.5592 17.78L-18.1792 19.32C-18.6059 19.92 -19.1926 20.3933 -19.9392 20.74C-20.6726 21.0733 -21.5259 21.24 -22.4992 21.24ZM-22.5392 12.24C-23.2192 12.24 -23.7592 12.4667 -24.1592 12.92C-24.5592 13.3733 -24.7592 13.96 -24.7592 14.68V14.84H-20.4792V14.66C-20.4792 13.94 -20.6592 13.36 -21.0192 12.92C-21.3659 12.4667 -21.8726 12.24 -22.5392 12.24ZM-15.5669 21V10.56H-13.0069V12.72H-12.9069C-12.8402 12.44 -12.7402 12.1733 -12.6069 11.92C-12.4602 11.6533 -12.2735 11.42 -12.0469 11.22C-11.8202 11.02 -11.5535 10.86 -11.2469 10.74C-10.9269 10.62 -10.5602 10.56 -10.1469 10.56H-9.58687V12.98H-10.3869C-11.2535 12.98 -11.9069 13.1067 -12.3469 13.36C-12.7869 13.6133 -13.0069 14.0267 -13.0069 14.6V21H-15.5669ZM-4.37719 21C-5.25719 21 -5.93052 20.7733 -6.39719 20.32C-6.85052 19.8533 -7.07719 19.1933 -7.07719 18.34V12.6H-8.61719V10.56H-7.81719C-7.43052 10.56 -7.17052 10.4733 -7.03719 10.3C-6.89052 10.1133 -6.81719 9.84 -6.81719 9.48V7.7H-4.51719V10.56H-2.37719V12.6H-4.51719V18.96H-2.53719V21H-4.37719ZM1.12328 9.04C0.589948 9.04 0.203281 8.92 -0.0367186 8.68C-0.263385 8.44 -0.376719 8.13333 -0.376719 7.76V7.36C-0.376719 6.98667 -0.263385 6.68 -0.0367186 6.44C0.203281 6.2 0.589948 6.08 1.12328 6.08C1.64328 6.08 2.02328 6.2 2.26328 6.44C2.50328 6.68 2.62328 6.98667 2.62328 7.36V7.76C2.62328 8.13333 2.50328 8.44 2.26328 8.68C2.02328 8.92 1.64328 9.04 1.12328 9.04ZM-0.156719 10.56H2.40328V21H-0.156719V10.56ZM9.59063 21.24C8.81729 21.24 8.12396 21.1133 7.51063 20.86C6.91063 20.5933 6.39729 20.2267 5.97063 19.76C5.55729 19.28 5.23729 18.7067 5.01063 18.04C4.78396 17.36 4.67063 16.6 4.67063 15.76C4.67063 14.9333 4.77729 14.1867 4.99063 13.52C5.21729 12.8533 5.53729 12.2867 5.95063 11.82C6.36396 11.34 6.87063 10.9733 7.47063 10.72C8.07063 10.4533 8.75063 10.32 9.51063 10.32C10.324 10.32 11.0306 10.46 11.6306 10.74C12.2306 11.02 12.724 11.4 13.1106 11.88C13.4973 12.36 13.784 12.92 13.9706 13.56C14.1706 14.1867 14.2706 14.86 14.2706 15.58V16.42H7.33063V16.68C7.33063 17.44 7.54396 18.0533 7.97063 18.52C8.39729 18.9733 9.03063 19.2 9.87063 19.2C10.5106 19.2 11.0306 19.0667 11.4306 18.8C11.844 18.5333 12.2106 18.1933 12.5306 17.78L13.9106 19.32C13.484 19.92 12.8973 20.3933 12.1506 20.74C11.4173 21.0733 10.564 21.24 9.59063 21.24ZM9.55063 12.24C8.87063 12.24 8.33063 12.4667 7.93063 12.92C7.53063 13.3733 7.33063 13.96 7.33063 14.68V14.84H11.6106V14.66C11.6106 13.94 11.4306 13.36 11.0706 12.92C10.724 12.4667 10.2173 12.24 9.55063 12.24ZM19.943 21.24C18.943 21.24 18.103 21.0733 17.423 20.74C16.743 20.3933 16.143 19.92 15.623 19.32L17.183 17.8C17.5696 18.24 17.9896 18.5867 18.443 18.84C18.9096 19.0933 19.443 19.22 20.043 19.22C20.6563 19.22 21.0963 19.1133 21.363 18.9C21.643 18.6867 21.783 18.3933 21.783 18.02C21.783 17.7133 21.683 17.4733 21.483 17.3C21.2963 17.1133 20.9696 16.9867 20.503 16.92L19.463 16.78C18.3296 16.6333 17.463 16.3133 16.863 15.82C16.2763 15.3133 15.983 14.58 15.983 13.62C15.983 13.1133 16.0763 12.66 16.263 12.26C16.4496 11.8467 16.7163 11.5 17.063 11.22C17.4096 10.9267 17.823 10.7067 18.303 10.56C18.7963 10.4 19.343 10.32 19.943 10.32C20.4496 10.32 20.8963 10.36 21.283 10.44C21.683 10.5067 22.043 10.6133 22.363 10.76C22.683 10.8933 22.9763 11.0667 23.243 11.28C23.5096 11.48 23.7696 11.7067 24.023 11.96L22.523 13.46C22.2163 13.14 21.8496 12.8733 21.423 12.66C20.9963 12.4467 20.5296 12.34 20.023 12.34C19.463 12.34 19.0563 12.44 18.803 12.64C18.563 12.84 18.443 13.1 18.443 13.42C18.443 13.7667 18.543 14.0333 18.743 14.22C18.9563 14.3933 19.3096 14.52 19.803 14.6L20.863 14.74C23.1163 15.06 24.243 16.0867 24.243 17.82C24.243 18.3267 24.1363 18.7933 23.923 19.22C23.723 19.6333 23.4363 19.9933 23.063 20.3C22.6896 20.5933 22.2363 20.8267 21.703 21C21.183 21.16 20.5963 21.24 19.943 21.24Z" fill="#0D120B"/>
<g id="arrow_drop_down">
<mask id="mask0_25_66" style="mask-type:alpha" maskUnits="userSpaceOnUse" x="-1" y="39" width="20" height="20">
<rect id="Bounding box" x="-1" y="39" width="20" height="20" fill="#D9D9D9"/>
</mask>
<g mask="url(#mask0_25_66)">
<path id="arrow_drop_down_2" d="M9 50.708L5.5 47.208H12.5L9 50.708Z" fill="#9CB8A6"/>
</g>
</g>
</g>
<rect id="Rectangle 1327" opacity="0.7" x="-388" y="-114" width="1294" height="915" fill="black"/>
<g id="Group 48095732">
<g id="Rectangle 1328" filter="url(#filter0_d_25_66)">
<rect x="-182" y="-40" width="421" height="366" rx="10" fill="white"/>
</g>
<circle id="Ellipse 2338" opacity="0.1" cx="28" cy="28" r="28" fill="#15BE53"/>
<circle id="Ellipse 2339" opacity="0.1" cx="28" cy="28" r="20" fill="#15BE53"/>
<g id="task_alt">
<mask id="mask1_25_66" style="mask-type:alpha" maskUnits="userSpaceOnUse" x="16" y="16" width="24" height="24">
<rect id="Bounding box_2" x="16" y="16" width="24" height="24" fill="#D9D9D9"/>
</mask>
<g mask="url(#mask1_25_66)">
<path id="task_alt_2" d="M28 38C26.6167 38 25.3167 37.7373 24.1 37.212C22.8833 36.6873 21.825 35.975 20.925 35.075C20.025 34.175 19.3127 33.1167 18.788 31.9C18.2627 30.6833 18 29.3833 18 28C18 26.6167 18.2627 25.3167 18.788 24.1C19.3127 22.8833 20.025 21.825 20.925 20.925C21.825 20.025 22.8833 19.3123 24.1 18.787C25.3167 18.2623 26.6167 18 28 18C29.0833 18 30.1083 18.1583 31.075 18.475C32.0417 18.7917 32.9333 19.2333 33.75 19.8L32.3 21.275C31.6667 20.875 30.9917 20.5623 30.275 20.337C29.5583 20.1123 28.8 20 28 20C25.7833 20 23.896 20.779 22.338 22.337C20.7793 23.8957 20 25.7833 20 28C20 30.2167 20.7793 32.1043 22.338 33.663C23.896 35.221 25.7833 36 28 36C30.2167 36 32.1043 35.221 33.663 33.663C35.221 32.1043 36 30.2167 36 28C36 27.7 35.9833 27.4 35.95 27.1C35.9167 26.8 35.8667 26.5083 35.8 26.225L37.425 24.6C37.6083 25.1333 37.75 25.6833 37.85 26.25C37.95 26.8167 38 27.4 38 28C38 29.3833 37.7373 30.6833 37.212 31.9C36.6873 33.1167 35.975 34.175 35.075 35.075C34.175 35.975 33.1167 36.6873 31.9 37.212C30.6833 37.7373 29.3833 38 28 38ZM26.6 32.6L22.35 28.35L23.75 26.95L26.6 29.8L36.6 19.775L38 21.175L26.6 32.6Z" fill="#15BE53"/>
</g>
</g>
</g>
</g>
<defs>
<filter id="filter0_d_25_66" x="-242" y="-70" width="541" height="486" filterUnits="userSpaceOnUse" color-interpolation-filters="sRGB">
<feFlood flood-opacity="0" result="BackgroundImageFix"/>
<feColorMatrix in="SourceAlpha" type="matrix" values="0 0 0 0 0 0 0 0 0 0 0 0 0 0 0 0 0 0 127 0" result="hardAlpha"/>
<feMorphology radius="10" operator="erode" in="SourceAlpha" result="effect1_dropShadow_25_66"/>
<feOffset dy="30"/>
<feGaussianBlur stdDeviation="35"/>
<feComposite in2="hardAlpha" operator="out"/>
<feColorMatrix type="matrix" values="0 0 0 0 0 0 0 0 0 0 0 0 0 0 0 0 0 0 0.5 0"/>
<feBlend mode="normal" in2="BackgroundImageFix" result="effect1_dropShadow_25_66"/>
<feBlend mode="normal" in="SourceGraphic" in2="effect1_dropShadow_25_66" result="shape"/>
</filter>
<clipPath id="clip0_25_66">
<rect width="1293" height="915" fill="white" transform="translate(-387 -114)"/>
</clipPath>
</defs>
</svg>
