<svg width="56" height="56" viewBox="0 0 56 56" fill="none" xmlns="http://www.w3.org/2000/svg">
<rect width="56" height="56" fill="#1E1E1E"/>
<g id="modals-1" clip-path="url(#clip0_25_66)">
<rect width="1293" height="915" transform="translate(-387 -515)" fill="white"/>
<g id="Group 32">
<rect id="Rectangle 4" x="-387" y="-515" width="1293" height="915" fill="#F6F9FC"/>
<g id="Rectangle 11" filter="url(#filter0_d_25_66)">
<rect x="-134" y="-320" width="990" height="608" rx="4" fill="white"/>
</g>
<g id="Group 25">
<g id="Rectangle 36" filter="url(#filter1_d_25_66)">
<path d="M-134 8H856V64H-134V8Z" fill="white"/>
</g>
<path id="02/02/2021" d="M-76.768 41V39.964H-74.038V32.096H-74.136L-76.6 34.392L-77.286 33.65L-74.696 31.228H-72.862V39.964H-70.342V41H-76.768ZM-65.9515 35.372C-65.2888 35.372 -64.7941 35.2227 -64.4675 34.924C-64.1315 34.616 -63.9635 34.224 -63.9635 33.748V33.65C-63.9635 33.1367 -64.1268 32.754 -64.4535 32.502C-64.7708 32.2407 -65.1908 32.11 -65.7135 32.11C-66.2175 32.11 -66.6281 32.222 -66.9455 32.446C-67.2628 32.6607 -67.5241 32.9547 -67.7295 33.328L-68.5975 32.656C-68.4761 32.46 -68.3315 32.2687 -68.1635 32.082C-67.9861 31.886 -67.7808 31.7133 -67.5475 31.564C-67.3141 31.4147 -67.0435 31.2933 -66.7355 31.2C-66.4275 31.1067 -66.0775 31.06 -65.6855 31.06C-65.2748 31.06 -64.8875 31.116 -64.5235 31.228C-64.1595 31.3307 -63.8468 31.4893 -63.5855 31.704C-63.3148 31.9093 -63.1048 32.166 -62.9555 32.474C-62.7968 32.782 -62.7175 33.132 -62.7175 33.524C-62.7175 33.8413 -62.7688 34.126 -62.8715 34.378C-62.9648 34.63 -63.0955 34.8493 -63.2635 35.036C-63.4315 35.2227 -63.6321 35.3813 -63.8655 35.512C-64.0895 35.6427 -64.3321 35.7407 -64.5935 35.806V35.862C-64.3321 35.918 -64.0801 36.0113 -63.8375 36.142C-63.5855 36.2633 -63.3661 36.4267 -63.1795 36.632C-62.9835 36.828 -62.8295 37.0707 -62.7175 37.36C-62.5961 37.64 -62.5355 37.962 -62.5355 38.326C-62.5355 38.746 -62.6148 39.1333 -62.7735 39.488C-62.9321 39.8333 -63.1561 40.132 -63.4455 40.384C-63.7348 40.6267 -64.0848 40.818 -64.4955 40.958C-64.9061 41.098 -65.3588 41.168 -65.8535 41.168C-66.2735 41.168 -66.6468 41.1213 -66.9735 41.028C-67.3001 40.9347 -67.5895 40.8087 -67.8415 40.65C-68.0935 40.4913 -68.3175 40.314 -68.5135 40.118C-68.7001 39.922 -68.8681 39.7167 -69.0175 39.502L-68.1355 38.83C-68.0141 39.026 -67.8835 39.2033 -67.7435 39.362C-67.5941 39.5207 -67.4308 39.656 -67.2535 39.768C-67.0761 39.88 -66.8755 39.9687 -66.6515 40.034C-66.4275 40.09 -66.1661 40.118 -65.8675 40.118C-65.1768 40.118 -64.6541 39.964 -64.2995 39.656C-63.9448 39.3387 -63.7675 38.8907 -63.7675 38.312V38.2C-63.7675 37.6213 -63.9448 37.178 -64.2995 36.87C-64.6541 36.5527 -65.1768 36.394 -65.8675 36.394H-67.0155V35.372H-65.9515ZM-55.9609 41V39.082H-60.6789V38.046L-56.5909 31.228H-54.8409V38.102H-53.4269V39.082H-54.8409V41H-55.9609ZM-59.5729 38.102H-55.9609V32.138H-56.0309L-59.5729 38.102ZM-51.5844 41V39.964H-48.8544V32.096H-48.9524L-51.4164 34.392L-52.1024 33.65L-49.5124 31.228H-47.6784V39.964H-45.1584V41H-51.5844ZM-39.8113 41V31.228H-35.9193C-35.0419 31.228 -34.3699 31.48 -33.9033 31.984C-33.4273 32.4787 -33.1893 33.16 -33.1893 34.028C-33.1893 34.896 -33.4273 35.582 -33.9033 36.086C-34.3699 36.5807 -35.0419 36.828 -35.9193 36.828H-38.6353V41H-39.8113ZM-38.6353 35.792H-35.9193C-35.4526 35.792 -35.0933 35.6707 -34.8413 35.428C-34.5799 35.1853 -34.4493 34.84 -34.4493 34.392V33.664C-34.4493 33.216 -34.5799 32.8707 -34.8413 32.628C-35.0933 32.3853 -35.4526 32.264 -35.9193 32.264H-38.6353V35.792ZM-28.9765 41.168C-29.4618 41.168 -29.9052 41.0793 -30.3065 40.902C-30.7078 40.7247 -31.0532 40.4727 -31.3425 40.146C-31.6225 39.81 -31.8418 39.4133 -32.0005 38.956C-32.1592 38.4893 -32.2385 37.9667 -32.2385 37.388C-32.2385 36.8187 -32.1592 36.3007 -32.0005 35.834C-31.8418 35.3673 -31.6225 34.9707 -31.3425 34.644C-31.0532 34.308 -30.7078 34.0513 -30.3065 33.874C-29.9052 33.6967 -29.4618 33.608 -28.9765 33.608C-28.4912 33.608 -28.0525 33.6967 -27.6605 33.874C-27.2592 34.0513 -26.9138 34.308 -26.6245 34.644C-26.3352 34.9707 -26.1112 35.3673 -25.9525 35.834C-25.7938 36.3007 -25.7145 36.8187 -25.7145 37.388C-25.7145 37.9667 -25.7938 38.4893 -25.9525 38.956C-26.1112 39.4133 -26.3352 39.81 -26.6245 40.146C-26.9138 40.4727 -27.2592 40.7247 -27.6605 40.902C-28.0525 41.0793 -28.4912 41.168 -28.9765 41.168ZM-28.9765 40.174C-28.3698 40.174 -27.8752 39.9873 -27.4925 39.614C-27.1098 39.2407 -26.9185 38.6713 -26.9185 37.906V36.87C-26.9185 36.1047 -27.1098 35.5353 -27.4925 35.162C-27.8752 34.7887 -28.3698 34.602 -28.9765 34.602C-29.5832 34.602 -30.0778 34.7887 -30.4605 35.162C-30.8432 35.5353 -31.0345 36.1047 -31.0345 36.87V37.906C-31.0345 38.6713 -30.8432 39.2407 -30.4605 39.614C-30.0778 39.9873 -29.5832 40.174 -28.9765 40.174ZM-23.8725 33.776H-22.7525V34.952H-22.6965C-22.5098 34.4947 -22.2392 34.1587 -21.8845 33.944C-21.5205 33.72 -21.0865 33.608 -20.5825 33.608C-20.1345 33.608 -19.7285 33.6967 -19.3645 33.874C-19.0005 34.0513 -18.6925 34.3033 -18.4405 34.63C-18.1792 34.9567 -17.9832 35.3533 -17.8525 35.82C-17.7125 36.2867 -17.6425 36.8093 -17.6425 37.388C-17.6425 37.9667 -17.7125 38.4893 -17.8525 38.956C-17.9832 39.4227 -18.1792 39.8193 -18.4405 40.146C-18.6925 40.4727 -19.0005 40.7247 -19.3645 40.902C-19.7285 41.0793 -20.1345 41.168 -20.5825 41.168C-21.5625 41.168 -22.2672 40.72 -22.6965 39.824H-22.7525V43.8H-23.8725V33.776ZM-20.8905 40.16C-20.2558 40.16 -19.7565 39.964 -19.3925 39.572C-19.0285 39.1707 -18.8465 38.648 -18.8465 38.004V36.772C-18.8465 36.128 -19.0285 35.61 -19.3925 35.218C-19.7565 34.8167 -20.2558 34.616 -20.8905 34.616C-21.1425 34.616 -21.3852 34.6533 -21.6185 34.728C-21.8425 34.7933 -22.0385 34.8867 -22.2065 35.008C-22.3745 35.1293 -22.5098 35.2787 -22.6125 35.456C-22.7058 35.624 -22.7525 35.806 -22.7525 36.002V38.69C-22.7525 38.9233 -22.7058 39.1333 -22.6125 39.32C-22.5098 39.4973 -22.3745 39.6513 -22.2065 39.782C-22.0385 39.9033 -21.8425 39.9967 -21.6185 40.062C-21.3852 40.1273 -21.1425 40.16 -20.8905 40.16ZM-14.5614 41C-14.9534 41 -15.2521 40.8927 -15.4574 40.678C-15.6534 40.454 -15.7514 40.174 -15.7514 39.838V30.64H-14.6314V40.02H-13.5674V41H-14.5614ZM-6.68695 41C-7.10695 41 -7.41029 40.888 -7.59695 40.664C-7.77429 40.44 -7.88629 40.16 -7.93295 39.824H-8.00295C-8.16162 40.272 -8.42295 40.608 -8.78695 40.832C-9.15095 41.056 -9.58495 41.168 -10.089 41.168C-10.8543 41.168 -11.4516 40.972 -11.881 40.58C-12.301 40.188 -12.511 39.656 -12.511 38.984C-12.511 38.3027 -12.2636 37.78 -11.769 37.416C-11.265 37.052 -10.4856 36.87 -9.43095 36.87H-8.00295V36.156C-8.00295 35.6427 -8.14295 35.2507 -8.42295 34.98C-8.70295 34.7093 -9.13229 34.574 -9.71095 34.574C-10.1496 34.574 -10.5183 34.672 -10.817 34.868C-11.1063 35.064 -11.349 35.3253 -11.545 35.652L-12.217 35.022C-12.021 34.63 -11.7083 34.2987 -11.279 34.028C-10.8496 33.748 -10.3083 33.608 -9.65495 33.608C-8.77762 33.608 -8.09629 33.8227 -7.61095 34.252C-7.12562 34.6813 -6.88295 35.2787 -6.88295 36.044V40.02H-6.05695V41H-6.68695ZM-9.90695 40.216C-9.62695 40.216 -9.37029 40.1833 -9.13695 40.118C-8.90362 40.0527 -8.70295 39.9593 -8.53495 39.838C-8.36695 39.7167 -8.23629 39.5767 -8.14295 39.418C-8.04962 39.2593 -8.00295 39.0867 -8.00295 38.9V37.71H-9.48695C-10.131 37.71 -10.6023 37.8033 -10.901 37.99C-11.1903 38.1767 -11.335 38.4473 -11.335 38.802V39.096C-11.335 39.4507 -11.209 39.726 -10.957 39.922C-10.6956 40.118 -10.3456 40.216 -9.90695 40.216ZM-4.45844 41V33.776H-3.33844V35.106H-3.26844C-3.13777 34.7607 -2.90444 34.4527 -2.56844 34.182C-2.23244 33.9113 -1.77044 33.776 -1.18244 33.776H-0.748437V34.896H-1.40644C-2.0131 34.896 -2.4891 35.0127 -2.83444 35.246C-3.17044 35.47 -3.33844 35.7547 -3.33844 36.1V41H-4.45844ZM6.84678 41.168C6.05345 41.168 5.37678 41.0187 4.81678 40.72C4.25678 40.412 3.78078 39.992 3.38878 39.46L4.25678 38.732C4.60211 39.1893 4.98478 39.5393 5.40478 39.782C5.82478 40.0153 6.31945 40.132 6.88878 40.132C7.58878 40.132 8.12078 39.964 8.48478 39.628C8.85811 39.292 9.04478 38.844 9.04478 38.284C9.04478 37.8173 8.90478 37.458 8.62478 37.206C8.34478 36.954 7.88278 36.7533 7.23878 36.604L6.44078 36.422C5.54478 36.2167 4.85878 35.9087 4.38278 35.498C3.91611 35.078 3.68278 34.49 3.68278 33.734C3.68278 33.3047 3.76211 32.922 3.92078 32.586C4.07945 32.25 4.29878 31.97 4.57878 31.746C4.86811 31.522 5.20878 31.354 5.60078 31.242C6.00211 31.1207 6.44078 31.06 6.91678 31.06C7.65411 31.06 8.28411 31.1953 8.80678 31.466C9.33878 31.7367 9.78678 32.1333 10.1508 32.656L9.26878 33.3C8.99811 32.9267 8.67145 32.6327 8.28878 32.418C7.90611 32.2033 7.43011 32.096 6.86078 32.096C6.23545 32.096 5.74078 32.2313 5.37678 32.502C5.02211 32.7633 4.84478 33.16 4.84478 33.692C4.84478 34.1587 4.99411 34.5133 5.29278 34.756C5.60078 34.9893 6.06278 35.176 6.67878 35.316L7.47678 35.498C8.43811 35.7127 9.13345 36.0393 9.56278 36.478C9.99212 36.9167 10.2068 37.5 10.2068 38.228C10.2068 38.676 10.1274 39.082 9.96878 39.446C9.81945 39.81 9.60011 40.118 9.31078 40.37C9.02145 40.622 8.66678 40.818 8.24678 40.958C7.83611 41.098 7.36945 41.168 6.84678 41.168ZM13.7215 41C13.3295 41 13.0309 40.8927 12.8255 40.678C12.6295 40.454 12.5315 40.1647 12.5315 39.81V34.756H11.3415V33.776H12.0135C12.2562 33.776 12.4195 33.7293 12.5035 33.636C12.5969 33.5333 12.6435 33.3607 12.6435 33.118V31.774H13.6515V33.776H15.2335V34.756H13.6515V40.02H15.1215V41H13.7215ZM17.0338 41V33.776H18.1538V35.106H18.2238C18.3544 34.7607 18.5878 34.4527 18.9238 34.182C19.2598 33.9113 19.7218 33.776 20.3098 33.776H20.7438V34.896H20.0858C19.4791 34.896 19.0031 35.0127 18.6578 35.246C18.3218 35.47 18.1538 35.7547 18.1538 36.1V41H17.0338ZM24.822 41.168C24.3273 41.168 23.8793 41.0793 23.478 40.902C23.086 40.7247 22.7453 40.4727 22.456 40.146C22.176 39.81 21.9567 39.4133 21.798 38.956C21.6487 38.4893 21.574 37.9667 21.574 37.388C21.574 36.8187 21.6487 36.3007 21.798 35.834C21.9567 35.3673 22.176 34.9707 22.456 34.644C22.7453 34.308 23.086 34.0513 23.478 33.874C23.8793 33.6967 24.3273 33.608 24.822 33.608C25.3073 33.608 25.7413 33.6967 26.124 33.874C26.5067 34.0513 26.8333 34.2987 27.104 34.616C27.3747 34.924 27.58 35.2927 27.72 35.722C27.8693 36.1513 27.944 36.6227 27.944 37.136V37.668H22.75V38.004C22.75 38.312 22.7967 38.6013 22.89 38.872C22.9927 39.1333 23.1327 39.362 23.31 39.558C23.4967 39.754 23.7207 39.908 23.982 40.02C24.2527 40.132 24.556 40.188 24.892 40.188C25.3493 40.188 25.746 40.0807 26.082 39.866C26.4273 39.6513 26.6933 39.3433 26.88 38.942L27.678 39.516C27.4447 40.0107 27.0807 40.412 26.586 40.72C26.0913 41.0187 25.5033 41.168 24.822 41.168ZM24.822 34.546C24.514 34.546 24.234 34.602 23.982 34.714C23.73 34.8167 23.5107 34.966 23.324 35.162C23.1467 35.358 23.0067 35.5913 22.904 35.862C22.8013 36.1233 22.75 36.4127 22.75 36.73V36.828H26.74V36.674C26.74 36.03 26.5627 35.5167 26.208 35.134C25.8627 34.742 25.4007 34.546 24.822 34.546ZM32.5056 41.168C32.0109 41.168 31.5629 41.0793 31.1616 40.902C30.7696 40.7247 30.4289 40.4727 30.1396 40.146C29.8596 39.81 29.6403 39.4133 29.4816 38.956C29.3323 38.4893 29.2576 37.9667 29.2576 37.388C29.2576 36.8187 29.3323 36.3007 29.4816 35.834C29.6403 35.3673 29.8596 34.9707 30.1396 34.644C30.4289 34.308 30.7696 34.0513 31.1616 33.874C31.5629 33.6967 32.0109 33.608 32.5056 33.608C32.9909 33.608 33.4249 33.6967 33.8076 33.874C34.1903 34.0513 34.5169 34.2987 34.7876 34.616C35.0583 34.924 35.2636 35.2927 35.4036 35.722C35.5529 36.1513 35.6276 36.6227 35.6276 37.136V37.668H30.4336V38.004C30.4336 38.312 30.4803 38.6013 30.5736 38.872C30.6763 39.1333 30.8163 39.362 30.9936 39.558C31.1803 39.754 31.4043 39.908 31.6656 40.02C31.9363 40.132 32.2396 40.188 32.5756 40.188C33.0329 40.188 33.4296 40.0807 33.7656 39.866C34.1109 39.6513 34.3769 39.3433 34.5636 38.942L35.3616 39.516C35.1283 40.0107 34.7643 40.412 34.2696 40.72C33.7749 41.0187 33.1869 41.168 32.5056 41.168ZM32.5056 34.546C32.1976 34.546 31.9176 34.602 31.6656 34.714C31.4136 34.8167 31.1943 34.966 31.0076 35.162C30.8303 35.358 30.6903 35.5913 30.5876 35.862C30.4849 36.1233 30.4336 36.4127 30.4336 36.73V36.828H34.4236V36.674C34.4236 36.03 34.2463 35.5167 33.8916 35.134C33.5463 34.742 33.0843 34.546 32.5056 34.546ZM39.0692 41C38.6772 41 38.3785 40.8927 38.1732 40.678C37.9772 40.454 37.8792 40.1647 37.8792 39.81V34.756H36.6892V33.776H37.3612C37.6039 33.776 37.7672 33.7293 37.8512 33.636C37.9445 33.5333 37.9912 33.3607 37.9912 33.118V31.774H38.9992V33.776H40.5812V34.756H38.9992V40.02H40.4692V41H39.0692Z" fill="#0D120B"/>
</g>
<g id="Group 26">
<g id="Rectangle 36_2" filter="url(#filter2_d_25_66)">
<path d="M-134 -48H856V8H-134V-48Z" fill="white"/>
</g>
</g>
</g>
<rect id="Rectangle 1327" opacity="0.7" x="-388" y="-515" width="1294" height="915" fill="black"/>
<g id="Group 48095732">
<g id="Rectangle 1328" filter="url(#filter3_d_25_66)">
<rect x="-182" y="-441" width="421" height="366" rx="10" fill="white"/>
</g>
</g>
<g id="Rectangle 1328_2" filter="url(#filter4_d_25_66)">
<rect x="-182" y="-40" width="421" height="366" rx="10" fill="white"/>
</g>
<circle id="Ellipse 2338" opacity="0.1" cx="28" cy="28" r="28" fill="#FF8D24"/>
<circle id="Ellipse 2339" opacity="0.1" cx="28" cy="28" r="20" fill="#FF8D24"/>
<g id="error_circle_rounded">
<mask id="mask0_25_66" style="mask-type:alpha" maskUnits="userSpaceOnUse" x="16" y="16" width="24" height="24">
<rect id="Bounding box" x="16" y="16" width="24" height="24" fill="#D9D9D9"/>
</mask>
<g mask="url(#mask0_25_66)">
<path id="error_circle_rounded_2" d="M28 33C28.2833 33 28.521 32.904 28.713 32.712C28.9043 32.5207 29 32.2833 29 32C29 31.7167 28.9043 31.479 28.713 31.287C28.521 31.0957 28.2833 31 28 31C27.7167 31 27.4793 31.0957 27.288 31.287C27.096 31.479 27 31.7167 27 32C27 32.2833 27.096 32.5207 27.288 32.712C27.4793 32.904 27.7167 33 28 33ZM28 29C28.2833 29 28.521 28.904 28.713 28.712C28.9043 28.5207 29 28.2833 29 28V24C29 23.7167 28.9043 23.479 28.713 23.287C28.521 23.0957 28.2833 23 28 23C27.7167 23 27.4793 23.0957 27.288 23.287C27.096 23.479 27 23.7167 27 24V28C27 28.2833 27.096 28.5207 27.288 28.712C27.4793 28.904 27.7167 29 28 29ZM28 38C26.6167 38 25.3167 37.7373 24.1 37.212C22.8833 36.6873 21.825 35.975 20.925 35.075C20.025 34.175 19.3127 33.1167 18.788 31.9C18.2627 30.6833 18 29.3833 18 28C18 26.6167 18.2627 25.3167 18.788 24.1C19.3127 22.8833 20.025 21.825 20.925 20.925C21.825 20.025 22.8833 19.3123 24.1 18.787C25.3167 18.2623 26.6167 18 28 18C29.3833 18 30.6833 18.2623 31.9 18.787C33.1167 19.3123 34.175 20.025 35.075 20.925C35.975 21.825 36.6873 22.8833 37.212 24.1C37.7373 25.3167 38 26.6167 38 28C38 29.3833 37.7373 30.6833 37.212 31.9C36.6873 33.1167 35.975 34.175 35.075 35.075C34.175 35.975 33.1167 36.6873 31.9 37.212C30.6833 37.7373 29.3833 38 28 38ZM28 36C30.2333 36 32.125 35.225 33.675 33.675C35.225 32.125 36 30.2333 36 28C36 25.7667 35.225 23.875 33.675 22.325C32.125 20.775 30.2333 20 28 20C25.7667 20 23.875 20.775 22.325 22.325C20.775 23.875 20 25.7667 20 28C20 30.2333 20.775 32.125 22.325 33.675C23.875 35.225 25.7667 36 28 36Z" fill="#FF8D24"/>
</g>
</g>
</g>
<defs>
<filter id="filter0_d_25_66" x="-136" y="-320" width="994" height="612" filterUnits="userSpaceOnUse" color-interpolation-filters="sRGB">
<feFlood flood-opacity="0" result="BackgroundImageFix"/>
<feColorMatrix in="SourceAlpha" type="matrix" values="0 0 0 0 0 0 0 0 0 0 0 0 0 0 0 0 0 0 127 0" result="hardAlpha"/>
<feOffset dy="2"/>
<feGaussianBlur stdDeviation="1"/>
<feComposite in2="hardAlpha" operator="out"/>
<feColorMatrix type="matrix" values="0 0 0 0 0.204549 0 0 0 0 0.293744 0 0 0 0 0.358333 0 0 0 0.06 0"/>
<feBlend mode="normal" in2="BackgroundImageFix" result="effect1_dropShadow_25_66"/>
<feBlend mode="normal" in="SourceGraphic" in2="effect1_dropShadow_25_66" result="shape"/>
</filter>
<filter id="filter1_d_25_66" x="-134" y="8" width="990" height="57" filterUnits="userSpaceOnUse" color-interpolation-filters="sRGB">
<feFlood flood-opacity="0" result="BackgroundImageFix"/>
<feColorMatrix in="SourceAlpha" type="matrix" values="0 0 0 0 0 0 0 0 0 0 0 0 0 0 0 0 0 0 127 0" result="hardAlpha"/>
<feOffset dy="1"/>
<feComposite in2="hardAlpha" operator="out"/>
<feColorMatrix type="matrix" values="0 0 0 0 0.204549 0 0 0 0 0.293744 0 0 0 0 0.358333 0 0 0 0.06 0"/>
<feBlend mode="normal" in2="BackgroundImageFix" result="effect1_dropShadow_25_66"/>
<feBlend mode="normal" in="SourceGraphic" in2="effect1_dropShadow_25_66" result="shape"/>
</filter>
<filter id="filter2_d_25_66" x="-134" y="-48" width="990" height="57" filterUnits="userSpaceOnUse" color-interpolation-filters="sRGB">
<feFlood flood-opacity="0" result="BackgroundImageFix"/>
<feColorMatrix in="SourceAlpha" type="matrix" values="0 0 0 0 0 0 0 0 0 0 0 0 0 0 0 0 0 0 127 0" result="hardAlpha"/>
<feOffset dy="1"/>
<feComposite in2="hardAlpha" operator="out"/>
<feColorMatrix type="matrix" values="0 0 0 0 0.204549 0 0 0 0 0.293744 0 0 0 0 0.358333 0 0 0 0.06 0"/>
<feBlend mode="normal" in2="BackgroundImageFix" result="effect1_dropShadow_25_66"/>
<feBlend mode="normal" in="SourceGraphic" in2="effect1_dropShadow_25_66" result="shape"/>
</filter>
<filter id="filter3_d_25_66" x="-242" y="-471" width="541" height="486" filterUnits="userSpaceOnUse" color-interpolation-filters="sRGB">
<feFlood flood-opacity="0" result="BackgroundImageFix"/>
<feColorMatrix in="SourceAlpha" type="matrix" values="0 0 0 0 0 0 0 0 0 0 0 0 0 0 0 0 0 0 127 0" result="hardAlpha"/>
<feMorphology radius="10" operator="erode" in="SourceAlpha" result="effect1_dropShadow_25_66"/>
<feOffset dy="30"/>
<feGaussianBlur stdDeviation="35"/>
<feComposite in2="hardAlpha" operator="out"/>
<feColorMatrix type="matrix" values="0 0 0 0 0 0 0 0 0 0 0 0 0 0 0 0 0 0 0.5 0"/>
<feBlend mode="normal" in2="BackgroundImageFix" result="effect1_dropShadow_25_66"/>
<feBlend mode="normal" in="SourceGraphic" in2="effect1_dropShadow_25_66" result="shape"/>
</filter>
<filter id="filter4_d_25_66" x="-242" y="-70" width="541" height="486" filterUnits="userSpaceOnUse" color-interpolation-filters="sRGB">
<feFlood flood-opacity="0" result="BackgroundImageFix"/>
<feColorMatrix in="SourceAlpha" type="matrix" values="0 0 0 0 0 0 0 0 0 0 0 0 0 0 0 0 0 0 127 0" result="hardAlpha"/>
<feMorphology radius="10" operator="erode" in="SourceAlpha" result="effect1_dropShadow_25_66"/>
<feOffset dy="30"/>
<feGaussianBlur stdDeviation="35"/>
<feComposite in2="hardAlpha" operator="out"/>
<feColorMatrix type="matrix" values="0 0 0 0 0 0 0 0 0 0 0 0 0 0 0 0 0 0 0.5 0"/>
<feBlend mode="normal" in2="BackgroundImageFix" result="effect1_dropShadow_25_66"/>
<feBlend mode="normal" in="SourceGraphic" in2="effect1_dropShadow_25_66" result="shape"/>
</filter>
<clipPath id="clip0_25_66">
<rect width="1293" height="915" fill="white" transform="translate(-387 -515)"/>
</clipPath>
</defs>
</svg>
